<svg width="195" height="226" viewBox="0 0 195 226" fill="none" xmlns="http://www.w3.org/2000/svg">
<g filter="url(#filter0_d_836_199)">
<circle cx="97.5" cy="93.5" r="93.5" fill="url(#paint0_linear_836_199)"/>
<path d="M72.5917 40.062L69.7762 42.4753C69.7295 42.5153 69.7026 42.5737 69.7026 42.6351V44.6075C69.7026 44.7874 69.9137 44.8844 70.0503 44.7673L75.1668 40.3817C75.3153 40.2545 75.2253 40.0113 75.0298 40.0113H72.7287C72.6785 40.0113 72.6299 40.0292 72.5917 40.062Z" fill="#70FF70"/>
<path d="M78.4893 40.0582L69.7807 47.108C69.7313 47.1479 69.7026 47.2081 69.7026 47.2716V49.2527C69.7026 49.4305 69.9095 49.5283 70.0469 49.4154L81.041 40.3846C81.1937 40.2591 81.105 40.0113 80.9073 40.0113H78.6218C78.5735 40.0113 78.5268 40.0278 78.4893 40.0582Z" fill="#70FF70"/>
<path d="M81.9956 42.3908L69.7817 52.162C69.7317 52.202 69.7026 52.2625 69.7026 52.3264V54.3141C69.7026 54.4907 69.9069 54.5889 70.0448 54.4786L82.2587 44.7074C82.3087 44.6674 82.3378 44.6069 82.3378 44.5429V42.5553C82.3378 42.3787 82.1335 42.2805 81.9956 42.3908Z" fill="#70FF70"/>
<path d="M81.9956 47.4449L69.7817 57.216C69.7317 57.256 69.7026 57.3165 69.7026 57.3805V59.3681C69.7026 59.5447 69.9069 59.6429 70.0448 59.5326L82.2587 49.7614C82.3087 49.7214 82.3378 49.6609 82.3378 49.597V47.6093C82.3378 47.4327 82.1335 47.3346 81.9956 47.4449Z" fill="#70FF70"/>
<path d="M81.9956 52.4989L69.7817 62.2701C69.7317 62.3101 69.7026 62.3706 69.7026 62.4345V64.4222C69.7026 64.5988 69.9069 64.697 70.0448 64.5866L82.2587 54.8155C82.3087 54.7755 82.3378 54.715 82.3378 54.651V52.6634C82.3378 52.4868 82.1335 52.3886 81.9956 52.4989Z" fill="#70FF70"/>
<path d="M89.5768 56.7106L77.3628 66.4818C77.3128 66.5218 77.2838 66.5823 77.2838 66.6462V68.6339C77.2838 68.8105 77.488 68.9087 77.6259 68.7983L89.8399 59.0272C89.8898 58.9872 89.9189 58.9267 89.9189 58.8627V56.8751C89.9189 56.6985 89.7146 56.6003 89.5768 56.7106Z" fill="#70FF70"/>
<path d="M89.5768 61.7647L77.3628 71.5359C77.3128 71.5758 77.2838 71.6363 77.2838 71.7003V73.688C77.2838 73.8645 77.488 73.9627 77.6259 73.8524L89.8399 64.0812C89.8898 64.0413 89.9189 63.9808 89.9189 63.9168V61.9291C89.9189 61.7526 89.7146 61.6544 89.5768 61.7647Z" fill="#70FF70"/>
<path d="M89.5768 66.8188L77.3628 76.5899C77.3128 76.6299 77.2838 76.6904 77.2838 76.7544V78.742C77.2838 78.9186 77.488 79.0168 77.6259 78.9065L89.8399 69.1353C89.8898 69.0953 89.9189 69.0348 89.9189 68.9709V66.9832C89.9189 66.8066 89.7146 66.7084 89.5768 66.8188Z" fill="#70FF70"/>
<path d="M89.5768 71.4516L77.3628 81.2228C77.3128 81.2628 77.2838 81.3233 77.2838 81.3872V83.3749C77.2838 83.5515 77.488 83.6497 77.6259 83.5393L89.8399 73.7682C89.8898 73.7282 89.9189 73.6677 89.9189 73.6037V71.6161C89.9189 71.4395 89.7146 71.3413 89.5768 71.4516Z" fill="#70FF70"/>
<path d="M89.5768 76.5057L77.3628 86.2769C77.3128 86.3168 77.2838 86.3773 77.2838 86.4413V88.429C77.2838 88.6055 77.488 88.7037 77.6259 88.5934L89.8399 78.8222C89.8898 78.7823 89.9189 78.7218 89.9189 78.6578V76.6701C89.9189 76.4936 89.7146 76.3954 89.5768 76.5057Z" fill="#70FF70"/>
<path d="M89.5768 81.9809L77.3628 91.7521C77.3128 91.792 77.2838 91.8525 77.2838 91.9165V93.9042C77.2838 94.0808 77.488 94.1789 77.6259 94.0686L89.8399 84.2975C89.8898 84.2575 89.9189 84.197 89.9189 84.133V82.1453C89.9189 81.9688 89.7146 81.8706 89.5768 81.9809Z" fill="#70FF70"/>
<path d="M89.5768 86.6138L77.3628 96.385C77.3128 96.4249 77.2838 96.4854 77.2838 96.5494V98.5371C77.2838 98.7137 77.488 98.8118 77.6259 98.7015L89.8399 88.9303C89.8898 88.8904 89.9189 88.8299 89.9189 88.7659V86.7782C89.9189 86.6017 89.7146 86.5035 89.5768 86.6138Z" fill="#70FF70"/>
<path d="M89.5768 91.2467L77.3628 101.018C77.3128 101.058 77.2838 101.118 77.2838 101.182V103.17C77.2838 103.347 77.488 103.445 77.6259 103.334L89.8399 93.5632C89.8898 93.5233 89.9189 93.4627 89.9189 93.3988V91.4111C89.9189 91.2345 89.7146 91.1364 89.5768 91.2467Z" fill="#70FF70"/>
<path d="M89.5768 96.3007L77.3628 106.072C77.3128 106.112 77.2838 106.172 77.2838 106.236V108.224C77.2838 108.401 77.488 108.499 77.6259 108.388L89.8399 98.6173C89.8898 98.5773 89.9189 98.5168 89.9189 98.4528V96.4652C89.9189 96.2886 89.7146 96.1904 89.5768 96.3007Z" fill="#70FF70"/>
<path d="M89.5768 101.355L77.3628 111.126C77.3128 111.166 77.2838 111.226 77.2838 111.29V113.278C77.2838 113.455 77.488 113.553 77.6259 113.443L89.8399 103.671C89.8898 103.631 89.9189 103.571 89.9189 103.507V101.519C89.9189 101.343 89.7146 101.244 89.5768 101.355Z" fill="#70FF70"/>
<path d="M89.5768 106.409L77.3628 116.18C77.3128 116.22 77.2838 116.28 77.2838 116.344V118.332C77.2838 118.509 77.488 118.607 77.6259 118.497L89.8399 108.725C89.8898 108.685 89.9189 108.625 89.9189 108.561V106.573C89.9189 106.397 89.7146 106.299 89.5768 106.409Z" fill="#70FF70"/>
<path d="M89.5768 111.463L77.3628 121.234C77.3128 121.274 77.2838 121.335 77.2838 121.398V123.386C77.2838 123.563 77.488 123.661 77.6259 123.551L89.8399 113.779C89.8898 113.739 89.9189 113.679 89.9189 113.615V111.627C89.9189 111.451 89.7146 111.353 89.5768 111.463Z" fill="#70FF70"/>
<path d="M89.5768 116.517L77.3628 126.288C77.3128 126.328 77.2838 126.389 77.2838 126.453V128.44C77.2838 128.617 77.488 128.715 77.6259 128.605L89.8399 118.833C89.8898 118.794 89.9189 118.733 89.9189 118.669V116.681C89.9189 116.505 89.7146 116.407 89.5768 116.517Z" fill="#70FF70"/>
<path d="M89.5768 121.15L77.3628 130.921C77.3128 130.961 77.2838 131.021 77.2838 131.085V133.073C77.2838 133.25 77.488 133.348 77.6259 133.238L89.8399 123.466C89.8898 123.426 89.9189 123.366 89.9189 123.302V121.314C89.9189 121.138 89.7146 121.04 89.5768 121.15Z" fill="#70FF70"/>
<path d="M81.9956 131.679L69.7817 141.45C69.7317 141.49 69.7026 141.551 69.7026 141.615V143.602C69.7026 143.779 69.9069 143.877 70.0448 143.767L82.2587 133.996C82.3087 133.956 82.3378 133.895 82.3378 133.831V131.844C82.3378 131.667 82.1335 131.569 81.9956 131.679Z" fill="#70FF70"/>
<path d="M81.9956 136.733L69.7817 146.504C69.7317 146.544 69.7026 146.605 69.7026 146.669V148.656C69.7026 148.833 69.9069 148.931 70.0448 148.821L82.2587 139.05C82.3087 139.01 82.3378 138.949 82.3378 138.885V136.898C82.3378 136.721 82.1335 136.623 81.9956 136.733Z" fill="#70FF70"/>
<path d="M81.9956 141.787L69.7817 151.558C69.7317 151.598 69.7026 151.659 69.7026 151.723V153.71C69.7026 153.887 69.9069 153.985 70.0448 153.875L82.2587 144.104C82.3087 144.064 82.3378 144.003 82.3378 143.939V141.952C82.3378 141.775 82.1335 141.677 81.9956 141.787Z" fill="#70FF70"/>
<path d="M81.9956 146.841L69.7817 156.612C69.7317 156.652 69.7026 156.713 69.7026 156.777V158.765C69.7026 158.941 69.9069 159.039 70.0448 158.929L82.2587 149.158C82.3087 149.118 82.3378 149.057 82.3378 148.993V147.006C82.3378 146.829 82.1335 146.731 81.9956 146.841Z" fill="#70FF70"/>
<path d="M83.9652 150.824L70.6011 161.354C70.4441 161.477 70.5315 161.73 70.7314 161.73H72.999C73.0463 161.73 73.0922 161.714 73.1294 161.685L86.4935 151.155C86.6504 151.032 86.563 150.779 86.3631 150.779H84.0955C84.0482 150.779 84.0023 150.795 83.9652 150.824Z" fill="#70FF70"/>
<path d="M90.7039 150.824L77.3398 161.354C77.1828 161.477 77.2703 161.73 77.4701 161.73H79.7378C79.785 161.73 79.8309 161.714 79.8681 161.685L93.2322 151.155C93.3891 151.032 93.3017 150.779 93.1018 150.779H90.8342C90.7869 150.779 90.741 150.795 90.7039 150.824Z" fill="#70FF70"/>
<path d="M97.4427 150.824L84.0786 161.354C83.9216 161.477 84.0091 161.73 84.2089 161.73H86.4766C86.5239 161.73 86.5698 161.714 86.6069 161.685L99.971 151.155C100.128 151.032 100.041 150.779 99.8407 150.779H97.573C97.5257 150.779 97.4798 150.795 97.4427 150.824Z" fill="#70FF70"/>
<path d="M104.603 150.824L91.2386 161.354C91.0816 161.477 91.1691 161.73 91.3689 161.73H93.6366C93.6838 161.73 93.7297 161.714 93.7669 161.685L107.131 151.155C107.288 151.032 107.2 150.779 107.001 150.779H104.733C104.686 150.779 104.64 150.795 104.603 150.824Z" fill="#70FF70"/>
<path d="M108.11 152.732L97.1364 161.354C96.9791 161.477 97.0665 161.73 97.2665 161.73H99.5312C99.5795 161.73 99.6262 161.713 99.6637 161.683L108.372 154.633C108.422 154.593 108.45 154.533 108.45 154.469V152.897C108.45 152.722 108.248 152.623 108.11 152.732Z" fill="#70FF70"/>
<path d="M108.117 157.756L103.089 161.348C102.922 161.467 103.006 161.73 103.211 161.73H105.435C105.479 161.73 105.521 161.716 105.557 161.69L108.362 159.687C108.418 159.647 108.45 159.584 108.45 159.515V157.927C108.45 157.756 108.257 157.656 108.117 157.756Z" fill="#70FF70"/>
<path d="M84.8069 55.2201L72.2729 65.3282C72.1182 65.4529 72.2064 65.7027 72.4051 65.7027H75.1016C75.1509 65.7027 75.1986 65.6854 75.2364 65.6539L87.3661 55.5458C87.5174 55.4197 87.4283 55.1734 87.2313 55.1734H84.9391C84.891 55.1734 84.8444 55.1899 84.8069 55.2201Z" fill="#70FF70"/>
<path d="M87.3919 27.3761C86.257 27.5572 85.9382 27.9758 85.7072 29.0608V48.8559C87.7384 50.8222 91.6036 52.2252 91.6036 52.2252V121.718C87.421 122.161 86.1657 123.295 85.7072 126.773V144.041C85.8792 146.333 86.4195 147.177 88.6554 147.41H121.086C123.217 147.721 123.819 147.057 123.613 144.041V126.773C122.967 123.217 121.629 122.068 117.295 121.718V52.2252C120.732 50.9005 121.659 49.4493 123.613 48.0135V29.0608C123.621 28.1805 123.46 27.7611 122.349 27.3761H87.3919Z" fill="url(#paint1_linear_836_199)"/>
<path d="M32.1342 198.542H36.0763V216.054H32.1342V198.542ZM47.7109 216.054V198.542H59.4363V201.852H51.6531V205.516H58.5771V208.827H51.6531V216.054H47.7109ZM75.6401 216.281C74.6798 216.281 73.7196 216.248 72.7593 216.18C71.8159 216.13 70.8303 215.995 69.8027 215.776V198.794C70.6113 198.643 71.4958 198.533 72.456 198.466C73.4163 198.382 74.3092 198.34 75.1347 198.34C76.2466 198.34 77.2658 198.424 78.1924 198.592C79.1358 198.744 79.9445 199.013 80.6183 199.401C81.2922 199.788 81.8145 200.302 82.1851 200.942C82.5726 201.566 82.7663 202.341 82.7663 203.267C82.7663 204.666 82.0924 205.769 80.7447 206.578C81.8566 206.999 82.6147 207.572 83.019 208.296C83.4233 209.021 83.6255 209.838 83.6255 210.747C83.6255 212.584 82.9516 213.965 81.6039 214.892C80.273 215.818 78.2851 216.281 75.6401 216.281ZM73.6438 208.422V212.946C73.9301 212.98 74.2418 213.005 74.5788 213.022C74.9157 213.038 75.2863 213.047 75.6906 213.047C76.8699 213.047 77.8218 212.878 78.5462 212.541C79.2706 212.205 79.6328 211.581 79.6328 210.671C79.6328 209.863 79.3296 209.29 78.7231 208.953C78.1166 208.599 77.249 208.422 76.1202 208.422H73.6438ZM73.6438 205.415H75.5643C76.7773 205.415 77.6449 205.264 78.1671 204.96C78.6894 204.64 78.9505 204.135 78.9505 203.444C78.9505 202.737 78.681 202.24 78.1419 201.953C77.6028 201.667 76.811 201.524 75.7665 201.524C75.4295 201.524 75.0673 201.532 74.6798 201.549C74.2924 201.549 73.947 201.566 73.6438 201.599V205.415ZM105.841 216.054C105.656 215.448 105.445 214.824 105.209 214.184C104.99 213.544 104.771 212.904 104.552 212.264H97.7291C97.5101 212.904 97.2826 213.544 97.0468 214.184C96.8278 214.824 96.6256 215.448 96.4403 216.054H92.3465C93.0035 214.167 93.6269 212.424 94.2165 210.823C94.8062 209.223 95.3789 207.715 95.9349 206.3C96.5077 204.885 97.0636 203.545 97.6027 202.282C98.1587 201.001 98.7315 199.755 99.3211 198.542H103.086C103.659 199.755 104.224 201.001 104.779 202.282C105.335 203.545 105.891 204.885 106.447 206.3C107.02 207.715 107.601 209.223 108.191 210.823C108.781 212.424 109.404 214.167 110.061 216.054H105.841ZM101.115 202.509C101.031 202.762 100.905 203.107 100.736 203.545C100.568 203.983 100.374 204.489 100.155 205.061C99.936 205.634 99.6917 206.266 99.4222 206.957C99.1695 207.647 98.9084 208.372 98.6388 209.13H103.617C103.348 208.372 103.086 207.647 102.834 206.957C102.581 206.266 102.337 205.634 102.101 205.061C101.882 204.489 101.688 203.983 101.52 203.545C101.351 203.107 101.216 202.762 101.115 202.509ZM131.66 216.054C130.531 214.049 129.309 212.07 127.995 210.116C126.681 208.161 125.283 206.317 123.801 204.581V216.054H119.909V198.542H123.118C123.674 199.098 124.289 199.78 124.963 200.589C125.637 201.397 126.319 202.265 127.01 203.191C127.717 204.101 128.417 205.053 129.107 206.047C129.798 207.024 130.447 207.968 131.053 208.877V198.542H134.97V216.054H131.66ZM156.926 216.054C156.572 215.481 156.151 214.866 155.663 214.209C155.191 213.535 154.669 212.87 154.096 212.213C153.54 211.539 152.959 210.899 152.352 210.292C151.746 209.669 151.139 209.122 150.533 208.65V216.054H146.591V198.542H150.533V205.163C151.561 204.084 152.588 202.964 153.616 201.802C154.66 200.622 155.629 199.536 156.522 198.542H161.197C160.001 199.957 158.796 201.321 157.583 202.636C156.387 203.95 155.124 205.272 153.793 206.603C155.191 207.765 156.539 209.147 157.836 210.747C159.15 212.348 160.405 214.117 161.601 216.054H156.926Z" fill="#FEFFFE"/>
</g>
<defs>
<filter id="filter0_d_836_199" x="0.63063" y="0" width="193.739" height="223.02" filterUnits="userSpaceOnUse" color-interpolation-filters="sRGB">
<feFlood flood-opacity="0" result="BackgroundImageFix"/>
<feColorMatrix in="SourceAlpha" type="matrix" values="0 0 0 0 0 0 0 0 0 0 0 0 0 0 0 0 0 0 127 0" result="hardAlpha"/>
<feOffset dy="3.36937"/>
<feGaussianBlur stdDeviation="1.68468"/>
<feComposite in2="hardAlpha" operator="out"/>
<feColorMatrix type="matrix" values="0 0 0 0 0.0235294 0 0 0 0 0.6 0 0 0 0 0.0235294 0 0 0 1 0"/>
<feBlend mode="normal" in2="BackgroundImageFix" result="effect1_dropShadow_836_199"/>
<feBlend mode="normal" in="SourceGraphic" in2="effect1_dropShadow_836_199" result="shape"/>
</filter>
<linearGradient id="paint0_linear_836_199" x1="4" y1="93.5" x2="191" y2="93.5" gradientUnits="userSpaceOnUse">
<stop stop-color="#5E45CC"/>
<stop offset="1" stop-color="#4250E3"/>
</linearGradient>
<linearGradient id="paint1_linear_836_199" x1="89.9189" y1="87.6036" x2="113.505" y2="87.6036" gradientUnits="userSpaceOnUse">
<stop stop-color="#32CD32"/>
<stop offset="1" stop-color="#6BE32B"/>
</linearGradient>
</defs>
</svg>
